<?xml version="1.0" standalone="no"?>
<!DOCTYPE svg PUBLIC "-//W3C//DTD SVG 20010904//EN"
 "http://www.w3.org/TR/2001/REC-SVG-20010904/DTD/svg10.dtd">
<svg version="1.0" xmlns="http://www.w3.org/2000/svg"
 width="1024.000000pt" height="1024.000000pt" viewBox="0 0 1024.000000 1024.000000"
 preserveAspectRatio="xMidYMid meet">

<g transform="translate(0.000000,1024.000000) scale(0.100000,-0.100000)"
fill="#000000" stroke="none">
<path d="M5740 7161 c0 -386 3 -701 6 -701 8 0 168 90 414 233 113 66 225 131
250 145 25 14 82 47 128 73 45 27 85 49 87 49 3 0 28 15 57 33 29 19 76 46
103 61 147 81 174 100 163 113 -6 7 -14 13 -18 13 -5 0 -45 23 -89 50 -44 28
-83 50 -87 50 -5 0 -189 106 -294 171 -25 15 -67 39 -95 54 -27 14 -57 30 -65
35 -76 48 -186 111 -201 115 -11 4 -19 11 -19 16 0 5 -5 9 -11 9 -6 0 -48 22
-93 48 -75 46 -211 123 -228 130 -5 2 -8 -312 -8 -697z"/>
<path d="M4448 7115 c-20 -14 -40 -25 -44 -25 -3 0 -51 -27 -106 -60 -54 -33
-101 -60 -103 -60 -2 0 -45 -25 -95 -55 -50 -30 -93 -55 -96 -55 -2 0 -45 -25
-95 -55 -50 -30 -92 -55 -94 -55 -2 0 -61 -34 -130 -75 -70 -41 -129 -75 -131
-75 -3 0 -23 -12 -47 -27 -50 -32 -104 -63 -170 -98 -26 -14 -50 -31 -53 -38
-2 -7 -3 -326 -2 -709 l3 -697 130 75 c72 42 148 86 170 99 22 12 99 56 170
97 72 42 200 116 285 165 308 178 425 246 443 257 16 10 17 55 17 713 0 387
-3 703 -8 703 -4 0 -24 -11 -44 -25z"/>
<path d="M6905 4268 c-27 -17 -79 -46 -115 -66 -36 -20 -92 -52 -125 -72 -33
-20 -84 -49 -112 -65 -29 -15 -53 -32 -53 -37 0 -4 -3 -7 -7 -6 -8 3 -114 -54
-193 -103 -37 -22 -224 -131 -397 -230 -17 -10 -50 -30 -73 -44 -23 -15 -63
-36 -88 -46 -26 -11 -49 -23 -52 -27 -5 -7 -17 -14 -110 -65 -25 -13 -99 -55
-165 -94 -66 -38 -228 -131 -360 -207 -132 -76 -244 -142 -250 -146 -5 -4 -32
-20 -60 -35 -27 -15 -92 -52 -144 -83 l-94 -55 29 -15 c16 -8 136 -77 267
-153 130 -77 239 -139 242 -139 2 0 28 -15 57 -34 29 -18 94 -56 143 -84 50
-27 180 -102 289 -165 l199 -115 58 32 c31 17 55 35 52 40 -4 5 -1 6 4 3 6 -4
99 45 207 108 107 63 197 115 200 115 2 0 35 19 72 42 38 23 98 58 134 78 36
21 137 79 225 130 88 51 186 107 217 124 l58 31 0 708 c0 389 -1 707 -2 706
-2 0 -25 -14 -53 -31z"/>
</g>
</svg>
